<mxfile host="app.diagrams.net" modified="2020-11-08T17:17:27.556Z" agent="5.0 (Macintosh; Intel Mac OS X 10_15_6) AppleWebKit/537.36 (KHTML, like Gecko) Chrome/86.0.4240.183 Safari/537.36" etag="w0qgTmqhRQSJpPAcCNRm" version="13.8.8" type="github">
  <diagram id="kgpKYQtTHZ0yAKxKKP6v" name="Page-1">
    <mxGraphModel dx="946" dy="556" grid="0" gridSize="10" guides="1" tooltips="1" connect="1" arrows="1" fold="1" page="1" pageScale="1" pageWidth="850" pageHeight="1100" math="0" shadow="0">
      <root>
        <mxCell id="0" />
        <mxCell id="1" parent="0" />
        <mxCell id="3nuBFxr9cyL0pnOWT2aG-1" value=":BookmarkRun" style="shape=umlLifeline;perimeter=lifelinePerimeter;container=1;collapsible=0;recursiveResize=0;rounded=0;shadow=0;strokeWidth=1;" parent="1" vertex="1">
          <mxGeometry x="120" y="80" width="100" height="300" as="geometry" />
        </mxCell>
        <mxCell id="3nuBFxr9cyL0pnOWT2aG-2" value="" style="points=[];perimeter=orthogonalPerimeter;rounded=0;shadow=0;strokeWidth=1;" parent="3nuBFxr9cyL0pnOWT2aG-1" vertex="1">
          <mxGeometry x="45" y="70" width="10" height="180" as="geometry" />
        </mxCell>
        <mxCell id="3nuBFxr9cyL0pnOWT2aG-3" value="run" style="verticalAlign=bottom;startArrow=oval;endArrow=block;startSize=8;shadow=0;strokeWidth=1;" parent="3nuBFxr9cyL0pnOWT2aG-1" target="3nuBFxr9cyL0pnOWT2aG-2" edge="1">
          <mxGeometry relative="1" as="geometry">
            <mxPoint x="-15" y="70" as="sourcePoint" />
          </mxGeometry>
        </mxCell>
        <mxCell id="3nuBFxr9cyL0pnOWT2aG-5" value=":BookmarkParser" style="shape=umlLifeline;perimeter=lifelinePerimeter;container=1;collapsible=0;recursiveResize=0;rounded=0;shadow=0;strokeWidth=1;" parent="1" vertex="1">
          <mxGeometry x="300" y="80" width="100" height="300" as="geometry" />
        </mxCell>
        <mxCell id="3nuBFxr9cyL0pnOWT2aG-6" value="" style="points=[];perimeter=orthogonalPerimeter;rounded=0;shadow=0;strokeWidth=1;" parent="3nuBFxr9cyL0pnOWT2aG-5" vertex="1">
          <mxGeometry x="45" y="80" width="10" height="40" as="geometry" />
        </mxCell>
        <mxCell id="3nuBFxr9cyL0pnOWT2aG-7" value="" style="verticalAlign=bottom;endArrow=open;dashed=1;endSize=8;shadow=0;strokeWidth=1;" parent="1" source="B2R43GQGmDqM2nL9ELwO-3" target="3nuBFxr9cyL0pnOWT2aG-2" edge="1">
          <mxGeometry x="0.1001" y="-67" relative="1" as="geometry">
            <mxPoint x="275" y="236" as="targetPoint" />
            <mxPoint x="343" y="290" as="sourcePoint" />
            <Array as="points">
              <mxPoint x="430" y="253" />
              <mxPoint x="330" y="253" />
              <mxPoint x="280" y="253" />
            </Array>
            <mxPoint x="60" y="37" as="offset" />
          </mxGeometry>
        </mxCell>
        <mxCell id="3nuBFxr9cyL0pnOWT2aG-8" value="evaluateInput" style="verticalAlign=bottom;endArrow=block;entryX=0;entryY=0;shadow=0;strokeWidth=1;" parent="1" source="3nuBFxr9cyL0pnOWT2aG-2" target="3nuBFxr9cyL0pnOWT2aG-6" edge="1">
          <mxGeometry relative="1" as="geometry">
            <mxPoint x="275" y="160" as="sourcePoint" />
          </mxGeometry>
        </mxCell>
        <mxCell id="3nuBFxr9cyL0pnOWT2aG-10" value="mode: int" style="verticalAlign=bottom;endArrow=open;dashed=1;endSize=8;shadow=0;strokeWidth=1;" parent="1" source="B2R43GQGmDqM2nL9ELwO-3" target="3nuBFxr9cyL0pnOWT2aG-1" edge="1">
          <mxGeometry relative="1" as="geometry">
            <mxPoint x="240" y="257" as="targetPoint" />
            <Array as="points">
              <mxPoint x="330" y="326" />
              <mxPoint x="300" y="326" />
            </Array>
          </mxGeometry>
        </mxCell>
        <mxCell id="B2R43GQGmDqM2nL9ELwO-1" value="executeCommand" style="verticalAlign=bottom;endArrow=block;shadow=0;strokeWidth=1;" parent="1" target="B2R43GQGmDqM2nL9ELwO-3" edge="1">
          <mxGeometry relative="1" as="geometry">
            <mxPoint x="178" y="225" as="sourcePoint" />
            <mxPoint x="310" y="220" as="targetPoint" />
            <Array as="points">
              <mxPoint x="280" y="225" />
              <mxPoint x="300" y="225" />
            </Array>
          </mxGeometry>
        </mxCell>
        <mxCell id="B2R43GQGmDqM2nL9ELwO-3" value=":BookmarkCommand" style="shape=umlLifeline;perimeter=lifelinePerimeter;container=1;collapsible=0;recursiveResize=0;rounded=0;shadow=0;strokeWidth=1;" parent="1" vertex="1">
          <mxGeometry x="460" y="140" width="120" height="240" as="geometry" />
        </mxCell>
        <mxCell id="B2R43GQGmDqM2nL9ELwO-6" value="" style="points=[];perimeter=orthogonalPerimeter;rounded=0;shadow=0;strokeWidth=1;" parent="B2R43GQGmDqM2nL9ELwO-3" vertex="1">
          <mxGeometry x="55" y="40" width="10" height="20" as="geometry" />
        </mxCell>
        <mxCell id="B2R43GQGmDqM2nL9ELwO-10" value="" style="points=[];perimeter=orthogonalPerimeter;rounded=0;shadow=0;strokeWidth=1;" parent="B2R43GQGmDqM2nL9ELwO-3" vertex="1">
          <mxGeometry x="55" y="80" width="10" height="34" as="geometry" />
        </mxCell>
        <mxCell id="B2R43GQGmDqM2nL9ELwO-93" value="" style="points=[];perimeter=orthogonalPerimeter;rounded=0;shadow=0;strokeWidth=1;" parent="B2R43GQGmDqM2nL9ELwO-3" vertex="1">
          <mxGeometry x="55" y="147" width="10" height="41" as="geometry" />
        </mxCell>
        <mxCell id="B2R43GQGmDqM2nL9ELwO-5" value="new" style="verticalAlign=bottom;endArrow=block;shadow=0;strokeWidth=1;" parent="1" edge="1">
          <mxGeometry relative="1" as="geometry">
            <mxPoint x="355" y="160.0000000000001" as="sourcePoint" />
            <mxPoint x="460" y="160" as="targetPoint" />
          </mxGeometry>
        </mxCell>
        <mxCell id="B2R43GQGmDqM2nL9ELwO-7" value="BookmarkCommand" style="verticalAlign=bottom;endArrow=open;dashed=1;endSize=8;shadow=0;strokeWidth=1;" parent="1" source="B2R43GQGmDqM2nL9ELwO-3" target="3nuBFxr9cyL0pnOWT2aG-6" edge="1">
          <mxGeometry relative="1" as="geometry">
            <mxPoint x="360" y="200" as="targetPoint" />
            <mxPoint x="510" y="200" as="sourcePoint" />
            <Array as="points">
              <mxPoint x="450" y="200" />
            </Array>
          </mxGeometry>
        </mxCell>
        <mxCell id="B2R43GQGmDqM2nL9ELwO-8" value="BookmarkCommand" style="verticalAlign=bottom;endArrow=open;dashed=1;endSize=8;exitX=0;exitY=0.95;shadow=0;strokeWidth=1;entryX=0.933;entryY=0.28;entryDx=0;entryDy=0;entryPerimeter=0;" parent="1" target="3nuBFxr9cyL0pnOWT2aG-2" edge="1">
          <mxGeometry relative="1" as="geometry">
            <mxPoint x="180" y="199.9999999999999" as="targetPoint" />
            <mxPoint x="345" y="199.9999999999999" as="sourcePoint" />
          </mxGeometry>
        </mxCell>
        <mxCell id="B2R43GQGmDqM2nL9ELwO-11" value="getCategoryNumber" style="verticalAlign=bottom;endArrow=block;shadow=0;strokeWidth=1;exitX=1;exitY=0.395;exitDx=0;exitDy=0;exitPerimeter=0;" parent="1" edge="1">
          <mxGeometry relative="1" as="geometry">
            <mxPoint x="177.75" y="289.7200000000001" as="sourcePoint" />
            <mxPoint x="522.25" y="289.67" as="targetPoint" />
            <Array as="points">
              <mxPoint x="282.75" y="289.67" />
              <mxPoint x="302.75" y="289.67" />
            </Array>
          </mxGeometry>
        </mxCell>
        <mxCell id="B2R43GQGmDqM2nL9ELwO-45" value=":BookmarkRun" style="shape=umlLifeline;perimeter=lifelinePerimeter;container=1;collapsible=0;recursiveResize=0;rounded=0;shadow=0;strokeWidth=1;" parent="1" vertex="1">
          <mxGeometry x="127" y="423" width="100" height="423" as="geometry" />
        </mxCell>
        <mxCell id="B2R43GQGmDqM2nL9ELwO-46" value="" style="points=[];perimeter=orthogonalPerimeter;rounded=0;shadow=0;strokeWidth=1;" parent="B2R43GQGmDqM2nL9ELwO-45" vertex="1">
          <mxGeometry x="45" y="70" width="10" height="284" as="geometry" />
        </mxCell>
        <mxCell id="B2R43GQGmDqM2nL9ELwO-47" value="run(add link)" style="verticalAlign=bottom;startArrow=oval;endArrow=block;startSize=8;shadow=0;strokeWidth=1;" parent="B2R43GQGmDqM2nL9ELwO-45" target="B2R43GQGmDqM2nL9ELwO-46" edge="1">
          <mxGeometry relative="1" as="geometry">
            <mxPoint x="-55" y="70" as="sourcePoint" />
          </mxGeometry>
        </mxCell>
        <mxCell id="B2R43GQGmDqM2nL9ELwO-48" value=":BookmarkParser" style="shape=umlLifeline;perimeter=lifelinePerimeter;container=1;collapsible=0;recursiveResize=0;rounded=0;shadow=0;strokeWidth=1;" parent="1" vertex="1">
          <mxGeometry x="307" y="423" width="100" height="426" as="geometry" />
        </mxCell>
        <mxCell id="B2R43GQGmDqM2nL9ELwO-49" value="" style="points=[];perimeter=orthogonalPerimeter;rounded=0;shadow=0;strokeWidth=1;" parent="B2R43GQGmDqM2nL9ELwO-48" vertex="1">
          <mxGeometry x="45" y="80" width="10" height="48" as="geometry" />
        </mxCell>
        <mxCell id="B2R43GQGmDqM2nL9ELwO-51" value="evaluateInput" style="verticalAlign=bottom;endArrow=block;entryX=0;entryY=0;shadow=0;strokeWidth=1;" parent="1" source="B2R43GQGmDqM2nL9ELwO-46" target="B2R43GQGmDqM2nL9ELwO-49" edge="1">
          <mxGeometry relative="1" as="geometry">
            <mxPoint x="282" y="503" as="sourcePoint" />
          </mxGeometry>
        </mxCell>
        <mxCell id="B2R43GQGmDqM2nL9ELwO-52" value="mode: int" style="verticalAlign=bottom;endArrow=open;dashed=1;endSize=8;shadow=0;strokeWidth=1;exitX=0.15;exitY=1.051;exitDx=0;exitDy=0;exitPerimeter=0;" parent="1" source="B2R43GQGmDqM2nL9ELwO-92" target="B2R43GQGmDqM2nL9ELwO-46" edge="1">
          <mxGeometry relative="1" as="geometry">
            <mxPoint x="177" y="757" as="targetPoint" />
            <Array as="points">
              <mxPoint x="422" y="774" />
              <mxPoint x="307" y="774" />
            </Array>
          </mxGeometry>
        </mxCell>
        <mxCell id="B2R43GQGmDqM2nL9ELwO-53" value="executeCommand" style="verticalAlign=bottom;endArrow=block;shadow=0;strokeWidth=1;exitX=0.9;exitY=0.32;exitDx=0;exitDy=0;exitPerimeter=0;" parent="1" source="B2R43GQGmDqM2nL9ELwO-46" edge="1">
          <mxGeometry relative="1" as="geometry">
            <mxPoint x="185" y="584" as="sourcePoint" />
            <mxPoint x="570" y="584" as="targetPoint" />
            <Array as="points">
              <mxPoint x="279" y="584" />
              <mxPoint x="402" y="584" />
            </Array>
          </mxGeometry>
        </mxCell>
        <mxCell id="B2R43GQGmDqM2nL9ELwO-54" value="AddLinkCommand:BookmarkCommand" style="shape=umlLifeline;perimeter=lifelinePerimeter;container=1;collapsible=0;recursiveResize=0;rounded=0;shadow=0;strokeWidth=1;" parent="1" vertex="1">
          <mxGeometry x="467" y="487" width="217" height="367" as="geometry" />
        </mxCell>
        <mxCell id="B2R43GQGmDqM2nL9ELwO-55" value="" style="points=[];perimeter=orthogonalPerimeter;rounded=0;shadow=0;strokeWidth=1;" parent="B2R43GQGmDqM2nL9ELwO-54" vertex="1">
          <mxGeometry x="103.5" y="40" width="10" height="16" as="geometry" />
        </mxCell>
        <mxCell id="B2R43GQGmDqM2nL9ELwO-56" value="" style="points=[];perimeter=orthogonalPerimeter;rounded=0;shadow=0;strokeWidth=1;" parent="B2R43GQGmDqM2nL9ELwO-54" vertex="1">
          <mxGeometry x="103.5" y="96" width="10" height="135" as="geometry" />
        </mxCell>
        <mxCell id="B2R43GQGmDqM2nL9ELwO-92" value="" style="points=[];perimeter=orthogonalPerimeter;rounded=0;shadow=0;strokeWidth=1;" parent="B2R43GQGmDqM2nL9ELwO-54" vertex="1">
          <mxGeometry x="103.5" y="244" width="10" height="41" as="geometry" />
        </mxCell>
        <mxCell id="lDT-1LPyz9fsKVlqVH7C-4" value="" style="points=[];perimeter=orthogonalPerimeter;rounded=0;shadow=0;strokeWidth=1;" vertex="1" parent="B2R43GQGmDqM2nL9ELwO-54">
          <mxGeometry x="109" y="174" width="10" height="19" as="geometry" />
        </mxCell>
        <mxCell id="B2R43GQGmDqM2nL9ELwO-67" value="" style="points=[];perimeter=orthogonalPerimeter;rounded=0;shadow=0;strokeWidth=1;" parent="B2R43GQGmDqM2nL9ELwO-54" vertex="1">
          <mxGeometry x="109" y="141" width="10" height="19" as="geometry" />
        </mxCell>
        <mxCell id="B2R43GQGmDqM2nL9ELwO-69" style="edgeStyle=orthogonalEdgeStyle;rounded=0;orthogonalLoop=1;jettySize=auto;html=1;" parent="B2R43GQGmDqM2nL9ELwO-54" source="B2R43GQGmDqM2nL9ELwO-67" edge="1">
          <mxGeometry relative="1" as="geometry">
            <Array as="points">
              <mxPoint x="116" y="137" />
              <mxPoint x="141" y="137" />
              <mxPoint x="141" y="151" />
            </Array>
            <mxPoint x="120" y="151" as="targetPoint" />
          </mxGeometry>
        </mxCell>
        <mxCell id="B2R43GQGmDqM2nL9ELwO-57" value="" style="verticalAlign=bottom;endArrow=block;shadow=0;strokeWidth=1;" parent="1" edge="1">
          <mxGeometry relative="1" as="geometry">
            <mxPoint x="362" y="503.0000000000001" as="sourcePoint" />
            <mxPoint x="467" y="503" as="targetPoint" />
          </mxGeometry>
        </mxCell>
        <mxCell id="B2R43GQGmDqM2nL9ELwO-58" value="AddLinkCommand" style="verticalAlign=bottom;endArrow=open;dashed=1;endSize=8;shadow=0;strokeWidth=1;" parent="1" edge="1">
          <mxGeometry x="0.4648" relative="1" as="geometry">
            <mxPoint x="362" y="543" as="targetPoint" />
            <mxPoint x="570" y="543" as="sourcePoint" />
            <Array as="points">
              <mxPoint x="457" y="543" />
            </Array>
            <mxPoint as="offset" />
          </mxGeometry>
        </mxCell>
        <mxCell id="B2R43GQGmDqM2nL9ELwO-59" value="AddLinkCommand" style="verticalAlign=bottom;endArrow=open;dashed=1;endSize=8;exitX=-0.1;exitY=0.979;shadow=0;strokeWidth=1;exitDx=0;exitDy=0;exitPerimeter=0;" parent="1" target="B2R43GQGmDqM2nL9ELwO-46" edge="1" source="B2R43GQGmDqM2nL9ELwO-49">
          <mxGeometry relative="1" as="geometry">
            <mxPoint x="187" y="542.9999999999999" as="targetPoint" />
            <mxPoint x="352" y="542.9999999999999" as="sourcePoint" />
          </mxGeometry>
        </mxCell>
        <mxCell id="B2R43GQGmDqM2nL9ELwO-60" value="getCategoryNumber" style="verticalAlign=bottom;endArrow=block;shadow=0;strokeWidth=1;" parent="1" edge="1">
          <mxGeometry x="-0.0622" y="-18" relative="1" as="geometry">
            <mxPoint x="184" y="731" as="sourcePoint" />
            <mxPoint x="570" y="731" as="targetPoint" />
            <Array as="points">
              <mxPoint x="242" y="731" />
              <mxPoint x="365" y="731" />
              <mxPoint x="401" y="731" />
            </Array>
            <mxPoint as="offset" />
          </mxGeometry>
        </mxCell>
        <mxCell id="B2R43GQGmDqM2nL9ELwO-61" value=":BookmarkCategory" style="shape=umlLifeline;perimeter=lifelinePerimeter;container=1;collapsible=0;recursiveResize=0;rounded=0;shadow=0;strokeWidth=1;" parent="1" vertex="1">
          <mxGeometry x="715" y="487" width="131" height="405" as="geometry" />
        </mxCell>
        <mxCell id="B2R43GQGmDqM2nL9ELwO-63" value="" style="points=[];perimeter=orthogonalPerimeter;rounded=0;shadow=0;strokeWidth=1;" parent="B2R43GQGmDqM2nL9ELwO-61" vertex="1">
          <mxGeometry x="60.5" y="202" width="10" height="25" as="geometry" />
        </mxCell>
        <mxCell id="B2R43GQGmDqM2nL9ELwO-64" value="alt" style="shape=umlFrame;whiteSpace=wrap;html=1;" parent="1" vertex="1">
          <mxGeometry x="441" y="547.5" width="321" height="177.5" as="geometry" />
        </mxCell>
        <mxCell id="B2R43GQGmDqM2nL9ELwO-65" value="" style="verticalAlign=bottom;endArrow=open;dashed=1;endSize=8;shadow=0;strokeWidth=1;" parent="1" edge="1">
          <mxGeometry relative="1" as="geometry">
            <mxPoint x="180.00333333333336" y="601" as="targetPoint" />
            <Array as="points">
              <mxPoint x="340.17" y="601" />
              <mxPoint x="310.17" y="601" />
            </Array>
            <mxPoint x="571" y="601" as="sourcePoint" />
          </mxGeometry>
        </mxCell>
        <mxCell id="B2R43GQGmDqM2nL9ELwO-66" value="[mode == 0]" style="text;html=1;strokeColor=none;fillColor=none;align=center;verticalAlign=middle;whiteSpace=wrap;rounded=0;" parent="1" vertex="1">
          <mxGeometry x="504" y="547.5" width="69" height="20" as="geometry" />
        </mxCell>
        <mxCell id="B2R43GQGmDqM2nL9ELwO-71" value="" style="endArrow=none;dashed=1;html=1;dashPattern=1 3;strokeWidth=2;" parent="1" target="B2R43GQGmDqM2nL9ELwO-61" edge="1">
          <mxGeometry width="50" height="50" relative="1" as="geometry">
            <mxPoint x="355" y="613" as="sourcePoint" />
            <mxPoint x="425" y="613" as="targetPoint" />
          </mxGeometry>
        </mxCell>
        <mxCell id="B2R43GQGmDqM2nL9ELwO-73" value="evaluateLink" style="text;html=1;align=center;verticalAlign=middle;resizable=0;points=[];autosize=1;" parent="1" vertex="1">
          <mxGeometry x="609" y="614" width="77" height="18" as="geometry" />
        </mxCell>
        <mxCell id="B2R43GQGmDqM2nL9ELwO-77" value="addLink" style="verticalAlign=bottom;endArrow=block;shadow=0;strokeWidth=1;" parent="1" edge="1">
          <mxGeometry x="0.0408" y="5" relative="1" as="geometry">
            <mxPoint x="580" y="690" as="sourcePoint" />
            <mxPoint x="776" y="690" as="targetPoint" />
            <Array as="points">
              <mxPoint x="682" y="690" />
              <mxPoint x="702" y="690" />
            </Array>
            <mxPoint as="offset" />
          </mxGeometry>
        </mxCell>
        <mxCell id="B2R43GQGmDqM2nL9ELwO-78" value=":BookmarkList" style="shape=umlLifeline;perimeter=lifelinePerimeter;container=1;collapsible=0;recursiveResize=0;rounded=0;shadow=0;strokeWidth=1;size=43;" parent="1" vertex="1">
          <mxGeometry x="835" y="650" width="124" height="105" as="geometry" />
        </mxCell>
        <mxCell id="B2R43GQGmDqM2nL9ELwO-79" value="" style="points=[];perimeter=orthogonalPerimeter;rounded=0;shadow=0;strokeWidth=1;" parent="B2R43GQGmDqM2nL9ELwO-78" vertex="1">
          <mxGeometry x="57" y="44" width="10" height="18" as="geometry" />
        </mxCell>
        <mxCell id="4Hyl6lSfYa6bQXHFlkTz-3" value="" style="verticalAlign=bottom;endArrow=block;shadow=0;strokeWidth=1;entryX=0;entryY=0.371;entryDx=0;entryDy=0;entryPerimeter=0;" parent="B2R43GQGmDqM2nL9ELwO-78" target="B2R43GQGmDqM2nL9ELwO-78" edge="1">
          <mxGeometry x="0.0408" y="5" relative="1" as="geometry">
            <mxPoint x="-49.5" y="40" as="sourcePoint" />
            <mxPoint x="-3" y="40" as="targetPoint" />
            <Array as="points">
              <mxPoint x="-15" y="40" />
            </Array>
            <mxPoint as="offset" />
          </mxGeometry>
        </mxCell>
        <mxCell id="B2R43GQGmDqM2nL9ELwO-83" style="edgeStyle=orthogonalEdgeStyle;rounded=0;orthogonalLoop=1;jettySize=auto;html=1;dashed=1;entryX=1.15;entryY=0.92;entryDx=0;entryDy=0;entryPerimeter=0;exitX=-0.083;exitY=0.881;exitDx=0;exitDy=0;exitPerimeter=0;" parent="1" source="B2R43GQGmDqM2nL9ELwO-79" target="B2R43GQGmDqM2nL9ELwO-63" edge="1">
          <mxGeometry relative="1" as="geometry">
            <Array as="points">
              <mxPoint x="839" y="710" />
              <mxPoint x="839" y="712" />
            </Array>
          </mxGeometry>
        </mxCell>
        <mxCell id="B2R43GQGmDqM2nL9ELwO-85" value="BookmarkList" style="text;html=1;align=center;verticalAlign=middle;resizable=0;points=[];autosize=1;" parent="1" vertex="1">
          <mxGeometry x="803" y="713" width="83" height="18" as="geometry" />
        </mxCell>
        <mxCell id="B2R43GQGmDqM2nL9ELwO-88" style="edgeStyle=orthogonalEdgeStyle;rounded=0;orthogonalLoop=1;jettySize=auto;html=1;dashed=1;exitX=-0.267;exitY=0.92;exitDx=0;exitDy=0;exitPerimeter=0;" parent="1" source="B2R43GQGmDqM2nL9ELwO-63" edge="1">
          <mxGeometry relative="1" as="geometry">
            <mxPoint x="581" y="712" as="targetPoint" />
            <Array as="points">
              <mxPoint x="581" y="712" />
            </Array>
          </mxGeometry>
        </mxCell>
        <mxCell id="B2R43GQGmDqM2nL9ELwO-89" value="ArrayList&amp;lt;BookmarkCategory&amp;gt;" style="text;html=1;align=center;verticalAlign=middle;resizable=0;points=[];autosize=1;" parent="1" vertex="1">
          <mxGeometry x="587" y="693.5" width="174" height="18" as="geometry" />
        </mxCell>
        <mxCell id="B2R43GQGmDqM2nL9ELwO-90" style="edgeStyle=orthogonalEdgeStyle;rounded=0;orthogonalLoop=1;jettySize=auto;html=1;dashed=1;exitX=-0.25;exitY=0.979;exitDx=0;exitDy=0;exitPerimeter=0;" parent="1" source="B2R43GQGmDqM2nL9ELwO-56" edge="1">
          <mxGeometry relative="1" as="geometry">
            <mxPoint x="466" y="700" as="sourcePoint" />
            <mxPoint x="181" y="717" as="targetPoint" />
            <Array as="points">
              <mxPoint x="181" y="717" />
            </Array>
          </mxGeometry>
        </mxCell>
        <mxCell id="lDT-1LPyz9fsKVlqVH7C-5" style="edgeStyle=orthogonalEdgeStyle;rounded=0;orthogonalLoop=1;jettySize=auto;html=1;" edge="1" parent="1">
          <mxGeometry relative="1" as="geometry">
            <Array as="points">
              <mxPoint x="580" y="654" />
              <mxPoint x="605" y="654" />
              <mxPoint x="605" y="668" />
            </Array>
            <mxPoint x="580" y="658" as="sourcePoint" />
            <mxPoint x="584" y="668" as="targetPoint" />
          </mxGeometry>
        </mxCell>
        <mxCell id="lDT-1LPyz9fsKVlqVH7C-8" value="checkLink" style="text;html=1;align=center;verticalAlign=middle;resizable=0;points=[];autosize=1;" vertex="1" parent="1">
          <mxGeometry x="609" y="643" width="63" height="18" as="geometry" />
        </mxCell>
      </root>
    </mxGraphModel>
  </diagram>
</mxfile>
